<?xml version="1.0" standalone="no"?>
<!DOCTYPE svg PUBLIC "-//W3C//DTD SVG 20010904//EN"
 "http://www.w3.org/TR/2001/REC-SVG-20010904/DTD/svg10.dtd">
<svg version="1.0" xmlns="http://www.w3.org/2000/svg"
 width="674.000000pt" height="472.000000pt" viewBox="0 0 674.000000 472.000000"
 preserveAspectRatio="xMidYMid meet">

<g transform="translate(0.000000,472.000000) scale(0.100000,-0.100000)"
fill="#000000" stroke="none">
<path d="M2995 4715 c-5 -2 -27 -6 -48 -10 -21 -3 -35 -9 -33 -13 3 -5 1 -14
-4 -22 -5 -9 -5 -19 1 -26 7 -9 4 -16 -11 -24 -15 -8 -21 -19 -18 -33 4 -20 0
-22 -40 -23 -31 -1 -40 2 -33 9 6 6 11 22 11 35 0 18 -4 23 -16 18 -9 -4 -23
-1 -31 6 -12 9 -20 6 -44 -20 -17 -18 -35 -32 -40 -32 -6 0 -24 -9 -41 -21
l-29 -21 -72 22 c-40 12 -93 28 -119 36 -64 19 -109 18 -191 -7 -86 -25 -140
-72 -135 -115 4 -32 28 -45 28 -16 0 22 30 47 98 81 56 29 196 40 244 20 38
-16 68 -48 61 -66 -6 -15 -33 -18 -33 -4 0 17 -35 17 -75 0 -22 -10 -64 -20
-93 -22 -29 -3 -60 -11 -68 -18 -9 -7 -31 -12 -50 -11 -33 3 -34 2 -34 -38 0
-35 3 -40 23 -40 13 0 32 -6 43 -14 10 -8 29 -12 42 -9 13 3 22 1 22 -6 0 -6
-5 -11 -12 -11 -28 0 38 -49 87 -65 29 -9 56 -23 59 -30 3 -8 0 -56 -5 -107
-6 -51 -9 -177 -7 -279 l3 -186 44 -87 c24 -48 56 -100 71 -116 15 -16 34 -40
44 -54 18 -28 41 -34 49 -13 4 8 6 9 6 0 2 -22 58 -75 77 -72 11 2 25 0 32 -5
7 -4 19 -3 26 4 28 22 71 28 105 14 44 -19 86 -18 133 3 42 19 49 33 17 33
-12 0 -19 5 -16 13 2 8 26 12 68 13 57 1 64 4 61 20 -2 11 -9 23 -15 27 -7 4
1 7 18 6 35 -3 95 26 95 45 0 8 -3 22 -6 30 -5 13 -9 14 -20 5 -24 -20 -15 -3
16 29 39 42 46 72 24 113 -20 39 -19 33 -29 117 -7 61 -6 63 24 89 17 15 31
33 31 40 0 7 4 13 9 13 4 0 7 -12 5 -27 -2 -16 -1 -20 2 -10 3 9 10 17 15 17
13 0 11 21 -7 55 -8 16 -16 50 -17 75 l-2 45 80 3 c68 3 84 7 114 30 37 28 99
61 116 61 6 0 2 -6 -8 -13 -10 -8 -18 -17 -18 -20 3 -23 -2 -37 -22 -67 -17
-25 -22 -45 -19 -71 2 -21 -1 -39 -8 -43 -16 -10 -20 -3 -25 35 -5 40 -8 42
-43 47 -79 11 -107 8 -106 -9 1 -10 -1 -18 -5 -18 -4 0 -5 -16 -3 -35 2 -20 9
-35 16 -34 24 3 56 -14 56 -30 0 -12 2 -13 8 -4 6 10 16 7 41 -11 18 -13 28
-27 23 -30 -5 -3 -7 -17 -5 -31 3 -13 9 -22 14 -19 5 3 7 9 5 13 -3 4 -1 13 4
21 7 11 11 8 19 -13 12 -30 32 -35 55 -11 20 19 20 41 1 78 -18 35 -18 36 0
36 9 0 12 6 8 16 -6 17 20 44 43 44 6 0 14 -18 18 -40 5 -29 10 -38 21 -34 8
4 15 19 15 34 0 16 5 32 11 36 12 7 3 93 -12 109 -6 5 -9 4 -9 -4 0 -20 -30 7
-30 28 0 9 -7 24 -14 34 -11 15 -10 23 7 58 17 34 22 38 29 25 5 -9 6 -31 3
-48 -5 -21 -4 -28 4 -24 6 4 16 -4 23 -18 6 -14 18 -26 27 -26 11 0 12 -3 4
-11 -15 -15 -5 -46 23 -64 15 -9 24 -25 24 -40 0 -18 5 -25 20 -25 18 0 20 7
20 63 0 34 4 67 8 74 14 23 90 42 157 40 63 -2 68 0 95 30 37 41 46 91 30 161
-10 47 -21 64 -76 118 -35 35 -87 75 -116 90 -46 23 -60 26 -116 21 -37 -4
-77 -15 -97 -27 -18 -11 -44 -20 -59 -20 -16 0 -26 -5 -26 -15 0 -20 -10 -19
-40 5 -28 22 -84 28 -78 8 2 -6 11 -15 19 -19 52 -26 68 -31 78 -25 12 8 60
-41 61 -60 0 -7 9 -14 20 -17 12 -3 20 -14 20 -26 0 -22 -14 -28 -25 -11 -10
17 -25 11 -25 -9 0 -19 23 -35 59 -40 5 0 11 -10 14 -21 3 -14 1 -18 -6 -13
-7 4 -21 6 -33 5 -14 -2 -24 6 -33 25 -12 27 -13 27 -27 8 -8 -10 -14 -31 -14
-45 0 -30 -30 -70 -52 -70 -8 0 -29 7 -47 16 -18 9 -58 18 -90 21 -56 5 -60 4
-100 -32 -48 -44 -78 -42 -66 3 8 27 13 55 14 80 1 6 9 12 20 12 32 0 45 28
45 99 1 48 -4 75 -17 94 -21 32 -52 35 -69 7 -15 -23 -28 -26 -28 -7 0 23 -42
39 -73 28 -38 -15 -34 1 4 18 18 8 34 22 36 32 3 11 11 19 18 19 7 0 15 6 18
14 3 8 19 17 36 21 17 4 31 11 31 16 0 5 9 9 21 9 25 0 20 23 -6 29 -26 5
-126 -20 -120 -30 3 -4 -8 -10 -25 -14 -16 -4 -30 -13 -30 -21 0 -8 -4 -14 -8
-14 -5 0 -7 16 -6 35 4 40 4 39 -31 23 -17 -8 -25 -18 -23 -32 2 -15 -3 -22
-19 -24 -17 -3 -23 2 -23 15 0 11 -5 24 -12 31 -9 9 -6 12 15 12 20 0 27 5 27
20 0 19 -24 26 -55 15z m-85 -165 c0 -5 -5 -10 -11 -10 -5 0 -7 5 -4 10 3 6 8
10 11 10 2 0 4 -4 4 -10z m-244 -25 c-11 -8 -25 -15 -30 -15 -6 0 -2 7 8 15
11 8 25 15 30 15 6 0 2 -7 -8 -15z m1268 -14 c23 -11 63 -42 89 -70 l47 -50 0
-75 c0 -86 -10 -121 -38 -128 -24 -7 -44 24 -47 72 -3 50 -8 65 -28 84 -9 10
-17 27 -17 39 -1 12 -15 39 -33 60 l-33 38 -43 -16 c-66 -23 -81 -20 -81 15 0
20 5 30 15 30 8 0 15 -8 15 -17 0 -15 1 -15 13 1 8 10 31 22 53 26 21 4 40 8
42 9 2 0 22 -8 46 -18z m-1230 -14 c4 4 -2 -17 -13 -47 -11 -30 -22 -67 -25
-82 -5 -22 -14 -28 -57 -37 -29 -6 -53 -10 -54 -9 -16 20 -25 52 -17 57 6 3
12 20 14 36 l3 30 23 -23 c21 -21 23 -22 48 -6 19 13 24 23 19 41 -8 33 3 47
23 31 14 -11 15 -10 9 6 -6 15 -5 17 6 8 8 -7 17 -9 21 -5z m552 -85 c-12 -11
-18 7 -10 30 l8 23 4 -23 c2 -13 1 -26 -2 -30z m-670 -264 l45 -32 -36 -13
c-34 -12 -38 -11 -61 14 -27 29 -26 26 -18 47 9 23 20 20 70 -16z m641 -30
c18 -34 31 -63 30 -65 -5 -4 -39 30 -61 61 -10 14 -22 23 -27 20 -5 -3 -19 -2
-31 2 l-23 7 24 8 c12 5 27 7 32 3 5 -3 9 2 9 10 0 30 15 15 47 -46z m228 13
c-32 -32 -67 -35 -95 -10 -14 12 -18 20 -10 17 45 -16 57 -16 80 -4 36 20 47
19 25 -3z m-510 -41 c-4 -11 -11 -20 -16 -20 -5 0 -9 -13 -9 -30 0 -23 -5 -30
-19 -30 -11 0 -23 -4 -26 -10 -3 -5 -15 -10 -25 -10 -10 0 -27 -10 -37 -23
-20 -26 -43 -25 -43 3 0 23 26 46 33 28 2 -7 4 5 3 26 -1 32 4 42 21 51 13 7
32 20 43 30 15 14 23 15 34 6 11 -9 15 -7 20 11 6 21 7 22 17 5 6 -9 7 -26 4
-37z m123 -276 c18 -8 32 -17 32 -20 0 -2 -25 -4 -56 -4 l-56 0 23 20 c13 10
24 19 25 20 0 0 15 -7 32 -16z m-13 -64 c4 -6 -5 -10 -19 -10 -14 0 -26 5 -26
10 0 6 9 10 19 10 11 0 23 -4 26 -10z m8 -95 c-21 -26 -29 -31 -31 -19 -4 18
25 54 45 54 9 0 4 -12 -14 -35z m144 -22 c-3 -10 -5 -4 -5 12 0 17 2 24 5 18
2 -7 2 -21 0 -30z m-314 -112 c4 -1 7 -13 8 -28 0 -25 1 -26 9 -8 6 15 9 7 9
-30 0 -27 -3 -55 -7 -61 -11 -17 -51 -36 -63 -29 -5 4 -16 2 -23 -5 -11 -8
-17 -4 -30 21 -14 27 -14 30 0 25 8 -3 13 -2 9 3 -9 15 13 61 30 61 9 0 15 6
14 13 -4 31 2 45 19 42 9 -2 20 -4 25 -4z m97 -112 c0 -5 -4 -9 -10 -9 -5 0
-10 7 -10 16 0 8 5 12 10 9 6 -3 10 -10 10 -16z m30 1 c0 -5 -2 -10 -4 -10 -3
0 -8 5 -11 10 -3 6 -1 10 4 10 6 0 11 -4 11 -10z"/>
<path d="M3138 4703 c7 -3 16 -2 19 1 4 3 -2 6 -13 5 -11 0 -14 -3 -6 -6z"/>
<path d="M3380 4676 c0 -2 7 -17 15 -32 9 -17 11 -30 5 -32 -15 -6 -12 -20 10
-42 25 -25 55 -27 46 -4 -4 9 -1 23 5 30 15 18 -33 84 -62 84 -10 0 -19 -2
-19 -4z"/>
<path d="M2792 4655 c-18 -21 7 -21 34 0 19 14 19 14 -1 14 -11 0 -26 -6 -33
-14z"/>
<path d="M3323 4638 c2 -7 12 -13 22 -13 10 0 20 6 23 13 2 7 -6 12 -23 12
-17 0 -25 -5 -22 -12z"/>
<path d="M3284 4589 c-11 -18 22 -41 62 -43 54 -2 53 19 -2 38 -56 19 -51 19
-60 5z"/>
<path d="M84 4560 c-12 -5 -25 -13 -28 -18 -3 -5 -17 -7 -31 -4 l-25 4 0 -137
0 -137 24 4 c16 3 27 0 30 -9 10 -25 6 -237 -4 -253 -5 -8 -10 -11 -10 -6 0 5
-6 3 -13 -3 -8 -6 -17 -8 -20 -4 -4 3 -7 -42 -7 -102 0 -94 2 -106 15 -95 12
10 20 6 47 -24 27 -31 38 -36 74 -36 34 0 47 5 63 25 l20 26 3 -23 c3 -21 8
-23 58 -23 50 0 55 2 58 24 l4 24 12 -24 c15 -30 40 -31 44 -1 5 31 49 31 54
0 5 -33 36 -35 44 -3 l6 26 25 -23 c28 -26 86 -33 104 -12 16 19 59 18 74 -3
8 -10 19 -14 30 -9 14 5 16 13 11 39 -5 30 -5 31 10 12 12 -17 16 -18 24 -5 9
15 10 13 26 -38 2 -8 15 -12 31 -10 20 2 29 10 33 28 6 29 30 38 30 11 0 -31
21 -38 110 -40 82 -1 86 0 118 29 17 17 32 27 32 23 0 -4 7 1 15 11 15 19 15
19 15 1 0 -13 3 -16 10 -9 16 16 9 199 -7 200 -7 1 -17 2 -22 3 -22 3 -34 76
-27 164 7 98 12 113 41 112 19 0 20 7 23 132 2 112 0 132 -12 127 -8 -3 -16 2
-19 13 -4 16 -5 16 -6 1 -1 -24 -23 -23 -39 2 -12 20 -23 20 -520 19 -279 0
-517 -4 -528 -9z m444 -108 c3 -18 -3 -21 -63 -24 -36 -1 -70 1 -76 7 -6 5 -9
4 -9 -4 0 -7 -7 -10 -18 -7 -26 9 -80 -87 -62 -109 8 -9 21 -13 36 -9 27 7 29
-1 9 -36 -23 -40 -18 -50 20 -50 33 0 35 2 35 33 0 47 9 54 72 55 l57 0 6 -39
c5 -30 13 -43 31 -49 25 -10 31 -24 14 -35 -16 -10 -373 -6 -384 5 -12 12 63
164 102 206 15 17 34 41 43 54 15 23 21 25 100 24 77 -1 84 -3 87 -22z m222 3
c0 -20 -17 -28 -62 -28 -21 0 -42 -5 -45 -11 -10 -16 -3 -79 10 -93 7 -7 53
-13 115 -15 88 -2 102 -5 102 -20 0 -9 24 -45 54 -80 48 -57 106 -145 106
-161 0 -4 -32 -7 -71 -7 -57 0 -75 4 -85 18 -20 26 -17 33 11 26 14 -3 36 -3
50 0 25 6 25 7 10 36 -21 41 -55 61 -101 60 -22 0 -70 0 -109 -1 -77 -1 -95
-9 -95 -46 0 -47 15 -61 59 -53 33 6 40 4 44 -11 7 -26 0 -29 -64 -29 l-57 0
-7 120 c-6 100 0 293 10 310 2 3 30 3 64 2 43 -3 61 -8 61 -17z m247 -11 c-20
-17 -35 -23 -50 -18 -11 3 -37 6 -59 6 -35 -1 -37 1 -28 19 9 16 22 19 88 19
l77 -1 -28 -25z m-511 -364 c37 0 44 -3 44 -20 0 -18 -7 -20 -60 -20 -58 0
-60 1 -60 26 0 20 4 25 16 20 9 -3 36 -6 60 -6z m104 -285 c0 -8 -2 -15 -4
-15 -2 0 -6 7 -10 15 -3 8 -1 15 4 15 6 0 10 -7 10 -15z"/>
<path d="M3517 4470 c-14 -11 -32 -20 -41 -20 -19 0 -20 -13 -6 -41 14 -24 78
-27 87 -3 4 11 14 14 34 10 55 -11 46 29 -14 59 -37 18 -29 19 -60 -5z"/>
<path d="M3425 4410 c-8 -13 14 -62 25 -55 15 9 12 52 -5 58 -8 4 -17 2 -20
-3z"/>
<path d="M3670 4136 c0 -9 5 -16 10 -16 6 0 10 4 10 9 0 6 -4 13 -10 16 -5 3
-10 -1 -10 -9z"/>
<path d="M3704 3954 c-12 -43 -13 -59 -4 -67 19 -19 40 21 40 75 0 26 -4 48
-10 48 -5 0 -17 -25 -26 -56z"/>
<path d="M3367 3934 c-19 -19 6 -108 27 -101 15 6 9 78 -7 94 -7 8 -16 10 -20
7z"/>
<path d="M3769 3933 c-1 -5 -3 -34 -4 -66 -3 -48 0 -60 18 -72 19 -13 20 -18
9 -65 -15 -65 -16 -128 -2 -114 10 10 34 126 31 149 -1 6 -3 28 -6 50 -3 22
-8 59 -11 83 -3 27 -10 42 -20 42 -8 0 -15 -3 -15 -7z"/>
<path d="M3444 3826 c-4 -10 -2 -34 4 -54 6 -20 13 -46 14 -56 2 -11 8 -21 15
-23 18 -6 10 99 -10 127 -15 21 -17 22 -23 6z"/>
<path d="M3637 3817 c-44 -54 -51 -90 -16 -85 32 5 63 51 55 82 -8 31 -15 32
-39 3z"/>
<path d="M3846 3768 c-15 -57 -1 -151 17 -121 11 18 12 136 1 140 -6 2 -14 -6
-18 -19z"/>
<path d="M3683 3723 c-25 -17 -32 -66 -12 -79 16 -10 49 36 49 69 0 31 -6 32
-37 10z"/>
<path d="M3753 3712 c-15 -10 -29 -82 -14 -82 5 0 15 9 21 20 14 27 9 72 -7
62z"/>
<path d="M3909 3687 c-14 -30 0 -77 23 -77 7 0 14 -14 15 -30 1 -17 7 -38 12
-48 8 -13 10 -7 11 30 0 28 -6 52 -15 62 -8 8 -15 25 -15 38 0 13 -4 30 -9 37
-8 12 -12 10 -22 -12z"/>
<path d="M3535 3658 c-26 -15 -34 -28 -28 -45 13 -33 63 -6 63 34 0 26 -6 28
-35 11z"/>
<path d="M3873 3604 c-3 -10 1 -30 11 -47 13 -23 14 -33 5 -43 -8 -9 -10 -34
-6 -70 5 -44 3 -56 -10 -61 -8 -3 -19 0 -23 7 -7 11 -11 11 -23 1 -11 -8 -17
-9 -22 -1 -8 13 -25 3 -25 -16 0 -8 7 -14 15 -14 22 0 19 -42 -5 -73 -11 -14
-20 -30 -20 -36 0 -6 -9 -11 -20 -11 -11 0 -23 -6 -26 -14 -3 -8 -32 -31 -65
-51 -66 -41 -72 -61 -16 -58 45 3 87 29 87 54 0 19 42 43 96 54 26 5 34 14 52
58 11 29 23 66 27 84 3 18 15 50 26 72 20 41 18 66 -6 139 -14 40 -41 54 -52
26z"/>
<path d="M3798 3578 c-17 -27 -32 -66 -22 -55 4 4 15 0 25 -9 26 -23 39 -9 32
34 -7 49 -17 58 -35 30z"/>
<path d="M3522 3508 c-27 -27 -6 -56 28 -38 24 13 26 35 4 44 -20 8 -18 8 -32
-6z"/>
<path d="M3670 3501 c-16 -30 -12 -43 10 -36 23 7 28 -10 5 -19 -20 -7 -21
-76 -1 -76 7 0 16 9 19 20 3 13 11 18 20 14 21 -8 30 12 23 51 -11 59 -55 85
-76 46z"/>
<path d="M3561 3444 c-6 -15 -9 -29 -6 -32 10 -11 40 14 43 37 5 30 -22 27
-37 -5z"/>
<path d="M3966 3454 c-11 -28 -6 -57 11 -69 15 -11 16 -17 4 -53 -9 -25 -11
-57 -7 -85 6 -40 5 -45 -14 -50 -16 -4 -21 -12 -18 -29 4 -29 38 -38 38 -9 0
11 5 23 10 26 6 3 10 1 10 -4 0 -6 8 -11 19 -11 10 0 24 -7 31 -15 19 -23 -4
-47 -34 -35 -13 4 -29 4 -39 -1 -16 -10 -30 0 -66 44 -11 13 -11 20 -1 32 14
17 4 55 -16 55 -21 0 -28 -25 -14 -50 11 -21 10 -22 -26 -18 -50 4 -53 -14
-10 -49 20 -15 36 -33 36 -40 0 -7 15 -17 33 -22 30 -8 30 -9 7 -12 -14 -1
-35 -1 -48 0 -13 1 -25 -5 -28 -14 -9 -22 24 -91 51 -109 21 -14 25 -13 51 15
36 37 50 37 74 -3 22 -37 10 -50 -20 -23 -24 21 -37 14 -45 -28 -4 -17 -12
-38 -17 -44 -18 -22 0 -81 31 -103 16 -11 36 -20 45 -20 56 0 110 77 88 126
-16 34 -16 35 12 28 20 -5 26 -1 35 23 9 25 10 22 6 -22 -2 -28 -6 -57 -9 -65
-9 -23 36 -94 67 -104 44 -16 81 3 85 41 2 18 -2 42 -8 54 l-12 21 32 -18 c28
-17 30 -22 25 -55 -4 -21 0 -53 8 -78 18 -50 1 -52 -24 -3 l-16 31 -23 -24
c-17 -18 -21 -31 -16 -52 4 -15 11 -48 16 -73 6 -25 18 -56 28 -69 22 -29 61
-46 66 -28 22 84 25 110 15 128 -5 11 -8 25 -5 32 3 9 5 9 5 0 1 -7 8 -13 16
-13 10 0 15 11 16 33 0 28 1 29 9 11 22 -55 51 -38 55 33 1 26 5 56 10 66 4
11 3 34 -3 53 -5 19 -6 34 -2 34 9 0 50 -66 50 -79 0 -5 7 -26 16 -47 l16 -38
30 33 c29 33 31 45 11 98 -7 17 -6 17 11 1 9 -10 21 -18 26 -18 11 0 21 30 14
42 -11 17 50 -25 79 -55 33 -35 34 -39 5 -28 -15 5 -35 3 -57 -6 -32 -13 -33
-16 -27 -54 4 -23 2 -39 -4 -39 -5 0 -16 -12 -24 -28 -12 -23 -12 -33 -2 -57
7 -17 16 -51 20 -76 9 -62 27 -84 68 -85 18 0 40 -4 49 -8 22 -10 49 19 49 53
0 16 -10 37 -24 50 -13 12 -26 33 -29 46 l-4 24 25 -19 c41 -33 69 -26 81 18
23 80 8 145 -39 169 -14 7 -19 13 -12 13 7 0 17 10 22 23 8 21 9 20 15 -10 4
-18 11 -33 15 -33 5 0 18 -21 31 -47 12 -27 31 -59 41 -72 26 -34 24 -61 -3
-54 -22 6 -22 5 -15 -103 4 -59 12 -118 18 -129 18 -34 71 -85 90 -85 20 0 33
37 25 76 -2 14 -1 41 3 60 7 31 4 40 -21 69 -40 45 -53 84 -39 120 9 24 14 27
40 21 23 -4 30 -2 30 10 0 19 39 9 57 -15 15 -19 15 -22 3 -41 -8 -13 -11 -12
-23 4 -9 13 -20 17 -32 13 -24 -10 -12 -53 26 -92 16 -17 29 -36 29 -43 0 -7
6 -12 14 -12 8 0 17 -7 20 -16 9 -24 7 -54 -4 -54 -5 0 -10 5 -10 12 0 6 -13
-1 -30 -17 -38 -37 -41 -90 -7 -132 13 -15 34 -45 46 -65 27 -45 48 -48 84
-10 23 24 26 36 26 87 -1 93 -6 112 -32 111 -17 -1 -23 6 -28 34 -6 30 -7 31
-8 8 0 -16 -5 -28 -11 -28 -16 0 -12 50 5 56 17 7 21 59 5 69 -6 4 -10 14 -8
24 1 9 -7 26 -20 39 -22 22 -30 62 -12 62 6 0 10 -11 10 -25 0 -14 5 -25 10
-25 6 0 10 24 10 53 0 32 4 47 9 39 5 -8 6 -33 3 -57 -4 -44 15 -91 55 -131 8
-8 12 -21 9 -29 -3 -8 3 -24 13 -37 16 -19 20 -20 34 -8 9 8 23 21 32 28 8 7
17 25 21 40 9 44 23 72 35 72 7 0 9 -9 6 -23 -4 -12 -2 -29 3 -37 8 -12 10
-10 10 8 0 13 4 21 9 17 5 -3 12 -1 16 5 4 6 11 8 16 4 5 -3 8 0 7 8 -2 8 8
14 24 16 15 2 35 13 43 25 l15 21 27 -21 c38 -28 37 -63 -1 -76 -22 -7 -35 -6
-57 7 -29 17 -29 17 -49 -16 -16 -25 -20 -46 -18 -86 4 -63 -7 -69 -16 -8 -6
37 -20 56 -41 56 -2 0 -7 -19 -11 -42 -6 -36 -8 -39 -13 -19 l-6 23 -14 -26
c-8 -14 -18 -26 -23 -26 -16 0 -9 -97 8 -111 9 -7 20 -23 25 -36 11 -30 20
-29 58 6 28 26 31 34 25 69 -5 31 -3 40 10 45 15 6 21 0 52 -58 6 -11 23 -21
40 -23 24 -2 31 2 42 27 13 29 20 64 21 105 1 16 3 16 21 -5 l19 -24 1 22 c0
15 5 21 14 17 11 -4 13 0 9 18 l-5 23 20 -24 c19 -23 20 -23 30 -5 11 18 11
18 12 -3 0 -13 5 -23 10 -23 6 0 10 6 10 14 0 7 7 19 15 26 17 14 20 56 5 65
-5 3 -7 25 -3 52 5 36 3 47 -10 55 -10 5 -17 21 -17 37 0 21 -5 28 -17 27 -11
0 -18 6 -18 16 0 33 -13 28 -19 -7 -6 -29 -10 -34 -20 -25 -10 8 -15 7 -20 -5
-3 -8 -13 -15 -21 -15 -14 0 -15 8 -9 46 4 31 3 45 -4 41 -16 -10 -25 -77 -12
-92 7 -8 7 -16 2 -19 -10 -6 -25 9 -35 35 -8 24 8 84 22 81 7 -1 5 7 -5 23
-16 24 -16 28 2 61 17 30 17 36 4 44 -8 6 -26 9 -40 8 -18 -2 -28 4 -38 25
-14 29 -39 34 -75 16 -21 -11 -21 -10 2 15 14 14 30 26 37 26 21 0 56 42 44
54 -5 5 -10 20 -10 33 0 14 -6 23 -16 23 -8 0 -12 5 -9 10 11 17 41 11 63 -13
17 -18 19 -26 10 -35 -6 -6 -17 -28 -24 -49 -15 -42 -5 -63 28 -63 10 0 30 -8
44 -17 34 -22 119 -26 135 -7 7 9 9 30 6 55 -5 37 -4 39 11 25 15 -12 17 -31
14 -118 -4 -128 -4 -128 1 -158 6 -36 6 -37 21 -18 11 15 14 14 30 -13 13 -22
15 -33 7 -43 -6 -7 -10 -45 -9 -85 1 -61 4 -74 22 -86 32 -23 44 -18 82 35 29
40 39 48 53 41 32 -18 46 4 47 73 2 50 7 73 24 97 14 19 23 46 23 69 0 32 2
37 19 32 18 -4 20 -1 14 29 -5 25 -27 52 -79 102 -39 37 -76 67 -80 67 -12 0
1 -64 13 -68 6 -2 10 -8 10 -13 0 -4 -7 -6 -15 -3 -12 5 -15 -2 -15 -30 0 -42
-16 -47 -31 -9 -8 21 -7 28 6 35 28 16 19 83 -16 123 -17 19 -35 35 -41 35 -5
0 -26 14 -47 30 -20 17 -46 32 -57 34 -10 3 -50 19 -87 36 -37 18 -87 34 -111
35 -24 2 -60 8 -81 15 -22 7 -114 13 -243 14 -114 1 -217 6 -229 10 -18 7 -23
5 -23 -8 0 -25 -43 -20 -55 7 -9 20 -17 22 -83 23 -84 0 -115 -13 -92 -41 10
-12 22 -15 54 -9 37 6 39 5 27 -10 -17 -20 -47 -20 -85 -1 -15 8 -36 15 -45
15 -22 0 -91 -67 -106 -104 -12 -29 -15 -30 -71 -28 -71 2 -128 14 -210 43
-51 17 -65 27 -83 60 -23 41 -47 53 -38 19 3 -11 2 -18 -3 -15 -4 3 -11 19
-14 37 -4 20 -28 57 -61 93 -30 33 -59 74 -66 90 -6 17 -15 39 -20 50 -5 11
-13 32 -19 48 -10 30 -34 36 -44 11z m104 -230 c0 -8 -4 -12 -10 -9 -5 3 -10
13 -10 21 0 8 5 12 10 9 6 -3 10 -13 10 -21z m27 -76 c-3 -8 -6 -5 -6 6 -1 11
2 17 5 13 3 -3 4 -12 1 -19z m13 -113 c7 -25 11 -47 9 -49 -11 -11 -36 24 -42
57 -9 55 17 48 33 -8z m-127 -11 c-7 -19 -23 -7 -23 18 0 17 3 18 14 8 8 -6
12 -18 9 -26z m249 1 c10 -13 15 -31 11 -40 -5 -16 -7 -16 -15 -1 -5 9 -15 16
-23 16 -21 0 -28 19 -15 35 17 20 22 19 42 -10z m1445 -6 c29 -29 -15 -51 -49
-25 -24 17 -23 24 5 29 12 2 24 5 28 6 3 0 10 -4 16 -10z m-1369 -44 c-9 -9
-30 14 -23 25 6 9 10 8 17 -4 6 -10 8 -19 6 -21z m70 -21 c-4 -3 -12 5 -18 18
-12 22 -12 22 6 6 10 -10 15 -20 12 -24z m87 -24 c8 -16 15 -42 15 -57 0 -25
-3 -23 -25 20 -14 27 -25 53 -25 58 0 19 20 8 35 -21z m-215 -32 c0 -5 -4 -8
-10 -8 -5 0 -10 10 -10 23 0 18 2 19 10 7 5 -8 10 -18 10 -22z m375 2 c10 -11
13 -20 7 -20 -6 0 -16 9 -22 20 -6 11 -9 20 -7 20 2 0 12 -9 22 -20z m-71 -25
c-4 -8 -11 -12 -16 -9 -6 4 -5 10 3 15 19 12 19 11 13 -6z m1285 -38 c-1 -31
-1 -31 -9 -7 -11 36 -11 52 0 45 6 -3 10 -21 9 -38z m-1564 13 c3 -5 1 -10 -4
-10 -6 0 -11 5 -11 10 0 6 2 10 4 10 3 0 8 -4 11 -10z m565 -31 c0 -6 -4 -7
-10 -4 -5 3 -10 11 -10 16 0 6 5 7 10 4 6 -3 10 -11 10 -16z m40 -4 c0 -8 -4
-15 -10 -15 -5 0 -10 7 -10 15 0 8 5 15 10 15 6 0 10 -7 10 -15z m237 -2 c-9
-9 -19 -14 -23 -11 -10 10 6 28 24 28 15 0 15 -1 -1 -17z m151 -36 c7 3 12 -4
12 -15 0 -11 7 -33 15 -48 17 -34 19 -53 5 -55 -5 -1 -16 -2 -22 -3 -7 0 -14
-11 -16 -24 -2 -12 -8 -20 -13 -17 -5 4 -9 -5 -9 -19 0 -14 -4 -26 -10 -26 -5
0 -10 23 -10 50 0 44 2 50 21 50 16 0 19 3 11 13 -5 6 -12 26 -15 42 -3 17 -9
41 -13 55 -7 24 -6 24 12 9 10 -9 25 -14 32 -12z m-868 -16 c6 -16 10 -38 8
-48 -2 -14 -8 -9 -26 20 -21 36 -22 57 -3 57 5 0 14 -13 21 -29z m1580 -41 c0
-5 -2 -10 -4 -10 -3 0 -8 5 -11 10 -3 6 -1 10 4 10 6 0 11 -4 11 -10z m-480
-31 c12 -22 8 -35 -8 -25 -13 8 -22 46 -11 46 4 0 13 -9 19 -21z m398 -43 c2
-15 0 -35 -4 -44 -6 -14 -8 -13 -14 8 l-8 25 -7 -22 c-10 -31 -25 -29 -25 2 0
27 29 67 45 62 5 -2 11 -16 13 -31z m-838 -8 c0 -5 -4 -8 -10 -8 -5 0 -10 10
-10 23 0 18 2 19 10 7 5 -8 10 -18 10 -22z m415 22 c3 -6 -1 -7 -9 -4 -18 7
-21 14 -7 14 6 0 13 -4 16 -10z m-755 -25 c30 -15 41 -46 18 -44 -13 0 -65 59
-53 59 3 0 19 -7 35 -15z m1260 -35 c0 -11 -4 -20 -10 -20 -5 0 -10 9 -10 20
0 11 5 20 10 20 6 0 10 -9 10 -20z m-30 -50 c0 -16 5 -30 10 -30 6 0 10 -10
10 -22 -1 -21 -2 -22 -14 -5 -7 9 -17 17 -22 17 -5 0 -8 15 -7 32 2 40 1 38
13 38 6 0 10 -13 10 -30z m-393 -207 c-3 -10 -5 -4 -5 12 0 17 2 24 5 18 2 -7
2 -21 0 -30z"/>
<path d="M3180 3406 c0 -9 7 -16 16 -16 17 0 14 22 -4 28 -7 2 -12 -3 -12 -12z"/>
<path d="M3295 3380 c-37 -16 -60 -23 -74 -24 -8 -1 -16 -6 -18 -12 -2 -7 16
-14 43 -18 40 -5 51 -3 71 16 39 37 27 59 -22 38z"/>
<path d="M3927 3362 c-23 -26 -23 -85 0 -80 19 3 33 54 23 82 -5 16 -7 16 -23
-2z"/>
<path d="M3440 3350 c-8 -4 -30 -14 -48 -21 -18 -6 -31 -17 -29 -23 5 -14 59
-9 72 8 6 7 18 15 28 19 20 7 23 27 5 26 -7 0 -20 -4 -28 -9z"/>
<path d="M3563 3345 c-3 -9 -3 -18 0 -21 9 -9 27 6 27 22 0 19 -19 18 -27 -1z"/>
<path d="M3633 3256 c-34 -34 -43 -66 -19 -66 8 0 17 11 20 24 3 13 15 26 26
29 12 3 20 13 20 26 0 29 -10 26 -47 -13z"/>
<path d="M3503 3225 c-3 -9 -3 -18 0 -21 9 -9 27 6 27 22 0 19 -19 18 -27 -1z"/>
<path d="M2778 3199 c2 -16 13 -34 23 -40 21 -11 26 -74 10 -125 -5 -16 -12
-41 -15 -55 -3 -15 -22 -46 -41 -69 -41 -49 -38 -67 8 -40 18 11 44 20 58 20
29 0 69 -37 69 -66 0 -27 12 -41 43 -53 40 -15 67 -14 73 4 9 21 -15 75 -33
75 -9 0 -12 6 -9 18 4 11 -7 30 -29 54 -19 20 -35 44 -35 53 0 9 -4 14 -9 11
-10 -7 -25 24 -16 33 3 3 10 -1 15 -9 8 -12 10 -10 10 8 0 12 6 22 14 22 10 0
16 13 18 38 2 23 8 36 16 35 29 -6 7 10 -52 37 -35 16 -69 37 -76 45 -7 9 -21
20 -30 25 -14 7 -16 4 -12 -21z"/>
<path d="M3281 3184 c-19 -24 -19 -28 -5 -55 18 -35 30 -36 55 -6 23 28 24 50
1 70 -24 22 -27 22 -51 -9z"/>
<path d="M3423 3107 c-14 -29 -19 -55 -16 -84 5 -41 4 -42 -22 -40 -16 1 -30
-4 -33 -11 -3 -10 4 -13 26 -11 16 2 37 -3 46 -10 14 -12 21 -10 54 16 40 33
53 63 28 63 -10 0 -16 9 -16 25 0 14 -4 25 -9 25 -4 0 -6 11 -4 24 4 17 -1 27
-14 35 -17 9 -23 5 -40 -32z"/>
<path d="M3023 3133 c-17 -6 -16 -28 1 -42 17 -14 39 9 30 33 -6 17 -10 18
-31 9z"/>
<path d="M3752 3131 c-7 -4 -8 -12 -2 -21 8 -13 11 -13 25 1 14 14 14 17 2 22
-7 3 -19 2 -25 -2z"/>
<path d="M3105 3079 c-22 -41 -15 -54 33 -66 64 -16 73 7 30 70 -25 35 -44 34
-63 -4z"/>
<path d="M3710 3073 c0 -17 40 -63 55 -63 7 0 18 7 25 15 17 21 -5 48 -32 39
-10 -3 -25 0 -33 6 -9 7 -15 8 -15 3z"/>
<path d="M3550 3030 c0 -11 5 -20 10 -20 6 0 10 9 10 20 0 11 -4 20 -10 20 -5
0 -10 -9 -10 -20z"/>
<path d="M2943 3025 c-9 -26 5 -86 24 -101 30 -22 53 -17 53 11 0 20 5 25 25
25 15 0 25 6 25 14 0 20 -48 48 -69 41 -12 -3 -21 0 -25 10 -7 19 -25 19 -33
0z"/>
<path d="M3642 3019 c2 -6 8 -10 13 -10 5 0 11 4 13 10 2 6 -4 11 -13 11 -9 0
-15 -5 -13 -11z"/>
<path d="M3707 2993 c-4 -3 -7 -19 -7 -34 0 -20 6 -28 25 -33 17 -4 30 -19 41
-45 11 -28 26 -45 52 -57 35 -16 36 -16 54 6 51 63 31 100 -53 100 -53 0 -60
3 -68 23 -11 27 -35 50 -44 40z"/>
<path d="M3614 2956 c-10 -26 1 -61 20 -64 28 -6 39 11 25 41 -14 31 -38 42
-45 23z"/>
<path d="M3296 2934 c-8 -22 -8 -24 8 -24 15 0 28 24 19 34 -11 10 -21 7 -27
-10z"/>
<path d="M3500 2885 c-7 -8 -10 -25 -6 -39 5 -20 2 -25 -16 -28 -25 -3 -27
-18 -5 -32 9 -6 22 -3 39 10 21 15 26 27 24 58 -1 43 -16 55 -36 31z"/>
<path d="M3120 2869 c0 -24 23 -21 28 4 2 10 -3 17 -12 17 -10 0 -16 -9 -16
-21z"/>
<path d="M3299 2874 c-9 -11 -23 -14 -45 -11 -42 7 -65 -11 -66 -51 -1 -40 8
-50 30 -34 9 7 25 15 35 18 9 4 17 10 17 15 0 5 11 9 24 9 14 0 26 7 29 18 2
9 8 25 12 35 9 22 -17 23 -36 1z"/>
<path d="M3420 2860 c0 -11 4 -20 9 -20 11 0 22 26 14 34 -12 12 -23 5 -23
-14z"/>
<path d="M2800 2835 c-10 -12 -10 -15 4 -15 9 0 16 7 16 15 0 8 -2 15 -4 15
-2 0 -9 -7 -16 -15z"/>
<path d="M3664 2825 c-9 -22 27 -70 52 -70 15 0 20 8 22 38 2 25 -1 37 -10 37
-7 0 -23 3 -35 6 -16 4 -25 1 -29 -11z"/>
<path d="M3412 2808 c-7 -7 -12 -24 -12 -39 0 -15 -4 -31 -10 -34 -10 -6 -14
-45 -5 -45 3 0 15 9 26 19 15 13 19 26 14 41 -4 12 -1 27 6 36 16 19 -2 39
-19 22z"/>
<path d="M2696 2778 c-12 -17 -18 -19 -29 -10 -11 9 -18 8 -31 -7 -16 -18 -16
-20 -1 -29 39 -21 150 26 131 57 -12 19 -54 12 -70 -11z"/>
<path d="M3056 2750 c-31 -33 -36 -43 -26 -55 10 -12 18 -10 51 18 25 20 38
39 37 51 -5 32 -22 28 -62 -14z"/>
<path d="M3553 2773 c-13 -8 -23 -22 -23 -29 0 -8 -7 -14 -15 -14 -22 0 -18
-28 6 -40 17 -10 21 -8 26 8 6 24 33 19 59 -9 46 -50 63 17 18 70 -29 35 -39
37 -71 14z"/>
<path d="M3800 2770 c-16 -30 -9 -63 18 -75 12 -5 22 -15 22 -21 0 -6 18 -23
40 -38 38 -25 52 -46 30 -46 -5 0 -17 -11 -26 -25 -14 -22 -15 -30 -3 -71 8
-25 19 -50 26 -56 16 -13 77 -2 92 16 7 8 21 12 32 9 36 -10 41 14 23 103 -3
16 -13 23 -39 26 -19 2 -39 0 -45 -6 -6 -6 -14 -5 -24 3 -13 11 -11 17 10 48
13 20 24 40 24 45 0 19 -44 68 -61 68 -10 0 -20 4 -23 9 -3 5 -16 11 -28 14
-13 2 -31 8 -40 11 -11 5 -20 1 -28 -14z"/>
<path d="M5673 2769 c-36 -13 -59 -131 -28 -143 8 -3 15 -2 15 3 0 4 16 24 35
44 57 59 43 120 -22 96z"/>
<path d="M6120 2741 c0 -12 4 -21 9 -21 6 0 20 -18 32 -40 16 -28 26 -37 34
-30 9 8 15 -3 22 -39 6 -28 7 -54 2 -58 -10 -11 -15 -114 -5 -141 4 -12 16
-27 27 -32 14 -8 19 -21 19 -55 0 -50 10 -61 41 -45 18 10 20 20 19 78 -3 82
0 94 10 62 6 -16 7 -1 3 40 -3 36 -12 72 -19 81 -8 9 -11 19 -7 22 3 4 -1 7
-10 7 -9 0 -32 25 -53 55 -20 31 -39 54 -42 51 -2 -3 -17 12 -33 33 -35 49
-49 58 -49 32z"/>
<path d="M4109 2729 c-7 -5 -24 -9 -36 -9 -46 0 -45 -92 1 -118 16 -9 43 -32
59 -49 29 -33 71 -44 79 -20 10 27 9 107 -1 125 -19 35 -85 82 -102 71z"/>
<path d="M3270 2682 c0 -22 25 -47 57 -56 11 -4 27 -13 33 -21 25 -30 100 -9
100 28 0 23 -38 43 -46 23 -7 -18 -27 -12 -70 21 -38 28 -74 31 -74 5z"/>
<path d="M6100 2678 c-1 -27 -18 -52 -43 -61 -15 -6 -18 -18 -16 -87 1 -44 6
-80 10 -80 5 0 9 -20 9 -44 0 -27 7 -52 18 -66 l18 -23 36 24 c47 31 58 63 42
120 -17 56 -17 59 1 59 35 0 35 69 -1 111 -8 8 -14 20 -14 26 0 13 -33 43 -48
43 -7 0 -12 -10 -12 -22z m40 -129 c12 -22 2 -25 -25 -6 -10 8 -15 19 -11 26
9 14 22 7 36 -20z"/>
<path d="M3175 2667 c-4 -14 -2 -35 5 -47 16 -30 42 -8 38 34 -4 40 -35 48
-43 13z"/>
<path d="M5732 2670 c0 -14 2 -19 5 -12 2 6 2 18 0 25 -3 6 -5 1 -5 -13z"/>
<path d="M2940 2665 c0 -9 6 -12 15 -9 8 4 12 10 9 15 -8 14 -24 10 -24 -6z"/>
<path d="M3729 2664 c-11 -14 -8 -20 21 -45 37 -30 53 -32 58 -8 3 19 -35 69
-53 69 -7 0 -19 -7 -26 -16z"/>
<path d="M4502 2633 c-7 -26 -8 -60 -2 -108 14 -102 13 -110 -5 -95 -12 10
-15 10 -16 -1 -4 -65 -19 -94 -19 -36 0 43 9 69 21 61 15 -9 10 50 -7 74 -18
26 -38 20 -29 -8 3 -11 0 -30 -6 -42 -8 -14 -12 -51 -10 -93 3 -115 14 -129
51 -70 12 19 25 35 30 35 4 0 5 -48 2 -108 -4 -89 -2 -110 11 -120 26 -22 86
2 135 53 44 46 47 61 22 120 -5 11 -11 33 -15 48 -8 37 -32 46 -51 18 -18 -25
-56 -27 -79 -5 -14 14 -14 19 -2 38 8 11 24 22 36 24 40 6 49 35 35 104 -18
87 -25 109 -35 102 -5 -3 -13 6 -19 20 -14 37 -35 32 -48 -11z"/>
<path d="M2795 2620 c-29 -42 -28 -70 3 -70 28 0 42 20 42 61 0 53 -13 55 -45
9z"/>
<path d="M2636 2582 c-35 -56 -50 -66 -75 -50 -34 21 -45 -1 -35 -69 8 -53 11
-58 36 -61 24 -3 27 0 30 35 2 32 7 39 28 41 45 6 70 40 70 94 0 60 -20 64
-54 10z"/>
<path d="M3527 2602 c-24 -26 -21 -65 7 -91 28 -26 48 -23 89 15 20 18 27 34
25 52 -3 30 -35 43 -49 20 -8 -10 -11 -10 -20 5 -13 22 -32 22 -52 -1z"/>
<path d="M5760 2576 c0 -9 5 -16 10 -16 6 0 10 4 10 9 0 6 -4 13 -10 16 -5 3
-10 -1 -10 -9z"/>
<path d="M3245 2540 c-8 -12 5 -60 16 -60 5 0 9 -10 9 -22 0 -19 -5 -23 -33
-23 -17 0 -38 4 -45 9 -23 14 -33 -9 -30 -70 3 -56 4 -59 28 -56 27 3 38 15
46 54 7 30 37 42 66 27 26 -14 48 5 48 40 0 18 -14 40 -44 69 -47 45 -52 47
-61 32z"/>
<path d="M3706 2525 c-14 -16 -26 -36 -26 -47 0 -15 -4 -17 -18 -9 -23 12 -62
-11 -62 -37 0 -28 30 -63 66 -78 18 -7 35 -23 39 -34 3 -11 17 -23 31 -26 53
-13 89 57 82 162 -4 72 -10 81 -55 90 -26 5 -36 2 -57 -21z"/>
<path d="M3102 2503 c5 -56 47 -54 51 2 2 25 -2 29 -26 31 -27 3 -28 1 -25
-33z"/>
<path d="M3397 2523 c-4 -3 -7 -25 -7 -49 0 -29 -5 -44 -16 -48 -21 -8 -15
-65 9 -80 27 -17 48 3 63 59 19 71 17 92 -8 109 -25 18 -32 19 -41 9z"/>
<path d="M2875 2489 c-9 -17 -15 -40 -13 -52 3 -19 9 -22 52 -22 46 0 50 2 57
28 10 37 4 52 -27 66 -39 17 -52 13 -69 -20z"/>
<path d="M3026 2513 c-12 -13 -6 -53 9 -53 9 0 15 9 15 24 0 26 -12 40 -24 29z"/>
<path d="M4846 2492 c-7 -20 0 -48 17 -70 7 -9 13 -9 23 -1 21 17 17 43 -10
68 -23 22 -24 22 -30 3z"/>
<path d="M2435 2415 c-14 -30 -25 -62 -25 -71 0 -23 32 -30 44 -10 6 10 21 34
34 53 28 43 26 77 -6 81 -19 3 -26 -6 -47 -53z"/>
<path d="M4175 2460 c-4 -6 -16 -8 -27 -5 -24 8 -58 -20 -58 -48 0 -11 12 -36
26 -54 19 -25 25 -42 21 -62 -7 -33 30 -104 56 -109 46 -9 76 55 84 180 4 71
3 92 -8 99 -19 12 -86 11 -94 -1z"/>
<path d="M2806 2423 c-4 -4 -15 -8 -24 -8 -12 0 -20 -13 -26 -43 -10 -49 0
-64 44 -60 20 2 26 10 31 38 3 19 7 40 9 45 8 30 -14 48 -34 28z"/>
<path d="M5992 2410 c-14 -15 -27 -20 -41 -15 -16 5 -20 3 -15 -9 4 -9 2 -22
-3 -29 -6 -6 -11 -49 -11 -94 0 -64 2 -83 13 -83 8 0 17 5 20 10 12 20 26 9
23 -17 -2 -16 -12 -32 -25 -39 -13 -6 -32 -19 -43 -29 -17 -15 -20 -16 -20 -3
0 9 7 21 15 28 23 19 6 32 -31 25 -39 -7 -42 0 -13 31 22 24 50 94 42 106 -2
5 -13 8 -23 8 -10 0 -22 5 -25 10 -14 22 -71 11 -100 -20 -21 -22 -32 -27 -41
-19 -17 14 -53 2 -86 -30 -31 -29 -36 -65 -12 -79 14 -8 14 -10 -1 -22 -24
-20 -57 -20 -87 1 -14 11 -34 19 -43 19 -24 0 -44 -29 -45 -62 0 -22 5 -28 23
-29 21 0 21 -1 2 -9 -14 -5 -24 -3 -31 6 -20 25 -44 -26 -42 -91 1 -52 3 -56
22 -50 12 3 60 12 107 20 48 7 97 18 109 25 50 27 68 -21 25 -64 -17 -17 -25
-36 -25 -60 0 -19 -4 -46 -10 -60 -5 -14 -12 -62 -15 -106 -6 -71 -4 -80 10
-80 18 0 18 -2 -3 -115 -6 -27 -6 -54 -2 -59 13 -14 40 1 40 22 0 10 11 31 24
46 13 15 28 44 34 64 11 34 10 38 -22 67 l-34 31 27 82 c14 45 31 82 38 82 17
0 35 37 29 58 -4 13 10 34 49 71 59 55 88 62 93 23 2 -14 18 -30 45 -43 37
-19 42 -20 52 -5 7 9 20 16 29 16 10 0 16 8 16 23 0 17 -10 28 -35 40 -33 16
-35 16 -54 -4 l-19 -20 -16 22 c-20 28 -20 39 -3 39 8 0 29 8 48 17 20 10 54
17 81 16 39 -1 50 4 75 29 l28 30 -24 19 c-20 16 -23 26 -18 59 7 53 -18 70
-53 38 -13 -12 -21 -17 -19 -12 37 88 42 107 31 125 -7 10 -12 25 -12 33 0 7
-6 19 -14 25 -11 10 -18 8 -34 -9z m-247 -286 c15 -39 15 -48 4 -55 -16 -10
-26 -2 -31 26 -1 11 -18 26 -36 34 -38 17 -41 28 -9 34 50 10 54 7 72 -39z
m65 -4 c0 -5 -4 -10 -10 -10 -5 0 -10 5 -10 10 0 6 5 10 10 10 6 0 10 -4 10
-10z m-259 -85 c0 -6 -10 -12 -23 -13 -19 -4 -20 -2 -9 12 15 17 33 18 32 1z
m259 -35 c0 -5 -7 -10 -15 -10 -8 0 -15 5 -15 10 0 6 7 10 15 10 8 0 15 -4 15
-10z m-170 -284 c0 -3 -4 -8 -10 -11 -5 -3 -10 -1 -10 4 0 6 5 11 10 11 6 0
10 -2 10 -4z"/>
<path d="M2652 2404 c-20 -22 -11 -59 13 -59 24 0 31 33 13 57 -11 15 -15 15
-26 2z"/>
<path d="M4358 2365 c-46 -31 -54 -57 -35 -104 8 -20 20 -55 26 -78 13 -48 29
-54 51 -20 14 21 23 182 12 215 -6 17 -12 15 -54 -13z"/>
<path d="M2980 2351 c-19 -37 -22 -94 -5 -116 14 -19 16 -19 29 -2 8 10 12 27
9 38 -3 10 -1 25 4 32 12 15 2 59 -14 64 -6 2 -17 -5 -23 -16z"/>
<path d="M3939 2332 c-19 -22 -51 -50 -71 -62 -20 -12 -40 -30 -43 -41 -8 -25
18 -66 51 -81 21 -10 24 -18 24 -63 0 -67 16 -90 57 -81 17 4 38 15 48 26 23
26 75 157 75 189 -1 39 -63 145 -87 149 -14 2 -32 -10 -54 -36z"/>
<path d="M2554 2349 c-8 -14 18 -31 30 -19 9 9 0 30 -14 30 -5 0 -12 -5 -16
-11z"/>
<path d="M4736 2343 c-11 -27 5 -105 30 -153 13 -25 24 -60 24 -78 0 -19 6
-35 14 -38 42 -16 92 59 96 141 4 84 1 104 -21 126 -20 20 -22 20 -40 3 -17
-15 -20 -15 -43 0 -32 21 -52 20 -60 -1z"/>
<path d="M2485 2316 c-19 -35 -19 -36 1 -63 43 -57 70 -34 56 47 -10 57 -32
63 -57 16z"/>
<path d="M3497 2321 c-6 -16 -19 -32 -29 -34 -40 -11 -47 -120 -12 -174 18
-28 55 -30 79 -3 10 11 26 20 36 20 27 0 82 68 75 94 -3 11 -6 28 -6 36 0 19
-92 90 -116 90 -8 0 -21 -13 -27 -29z m10 -98 c-3 -10 -5 -4 -5 12 0 17 2 24
5 18 2 -7 2 -21 0 -30z"/>
<path d="M3264 2315 c-3 -13 -11 -23 -17 -22 -7 1 -16 -19 -21 -45 -7 -36 -14
-48 -30 -50 -18 -3 -21 -10 -21 -58 0 -36 -6 -63 -17 -79 -13 -18 -15 -29 -7
-43 9 -16 17 -19 47 -13 21 3 46 16 58 29 16 18 25 21 38 14 14 -8 25 -4 48
18 24 24 28 35 24 59 -4 16 -10 33 -15 38 -15 15 -52 -3 -62 -30 -6 -17 -14
-23 -25 -19 -9 3 -20 6 -25 6 -5 0 -8 18 -7 40 2 50 38 91 63 70 11 -9 19 -10
26 -3 15 15 14 80 -1 98 -19 23 -49 18 -56 -10z"/>
<path d="M6205 2329 c-4 -5 -13 -8 -21 -5 -26 10 -44 -23 -44 -83 0 -61 14
-86 42 -76 21 8 35 43 43 107 7 53 -4 84 -20 57z"/>
<path d="M3054 2317 c-9 -24 0 -80 13 -84 6 -2 21 5 32 16 15 15 18 26 12 48
-8 31 -47 45 -57 20z"/>
<path d="M5674 2309 c0 -10 4 -19 8 -19 4 0 8 6 8 14 0 8 -4 17 -8 20 -4 2 -8
-4 -8 -15z"/>
<path d="M2376 2313 c-3 -4 -6 -15 -6 -25 0 -35 -30 -80 -49 -73 -10 3 -32 -5
-52 -18 -19 -12 -55 -30 -80 -40 -55 -21 -94 -59 -85 -82 3 -9 -1 -26 -9 -38
-18 -26 -20 -81 -2 -95 12 -9 95 -23 149 -24 15 -1 39 7 53 16 22 14 25 24 25
71 0 61 -17 86 -52 78 -13 -3 -28 -10 -35 -15 -17 -14 -27 10 -10 26 18 19 97
56 118 56 10 0 26 -11 36 -24 11 -15 33 -27 56 -31 l37 -7 1 38 c2 61 -2 78
-20 99 -10 11 -23 34 -30 52 -13 31 -33 47 -45 36z m44 -128 c0 -8 -4 -15 -9
-15 -13 0 -22 16 -14 24 11 11 23 6 23 -9z"/>
<path d="M2587 2283 c-21 -75 -15 -123 14 -123 17 0 30 53 23 97 -6 44 -28 59
-37 26z"/>
<path d="M2892 2268 c-6 -6 -12 -19 -11 -27 1 -29 35 -76 57 -79 19 -3 22 1
22 30 0 63 -38 106 -68 76z"/>
<path d="M6377 2243 c-4 -27 -5 -27 -12 -5 -11 32 -24 27 -41 -13 -14 -35 -6
-75 15 -75 5 0 9 -19 9 -42 0 -24 1 -56 2 -72 2 -26 -12 -45 -34 -46 -4 0 -5
16 -2 35 5 27 2 39 -13 54 -12 12 -18 27 -15 36 9 23 -4 62 -22 69 -23 9 -49
-17 -63 -64 -10 -33 -9 -45 4 -69 8 -16 19 -33 25 -36 17 -10 11 -35 -8 -35
-10 0 -28 -13 -40 -30 -19 -25 -21 -36 -14 -82 7 -46 11 -53 29 -51 19 2 21
-1 14 -25 -6 -21 -4 -34 9 -49 27 -33 32 -93 15 -175 -16 -76 -42 -115 -78
-120 -13 -2 -23 -14 -28 -32 -10 -38 -43 -71 -95 -96 -25 -13 -44 -30 -48 -43
-3 -13 -26 -34 -57 -52 -58 -34 -66 -47 -29 -55 55 -11 73 -35 78 -100 5 -72
23 -79 47 -17 10 26 27 49 45 59 32 18 37 37 20 69 -6 10 -7 19 -3 19 16 0 73
-40 75 -52 0 -7 1 -20 2 -28 1 -8 4 -14 9 -12 4 1 11 2 15 2 5 0 23 21 40 46
28 39 32 51 26 82 -7 34 -6 36 9 23 10 -7 17 -24 17 -37 0 -33 28 -31 41 3 14
38 -6 125 -35 152 -13 12 -36 26 -52 31 l-29 8 31 1 c17 1 38 8 45 17 11 14
11 18 -5 29 -17 13 -17 13 1 17 10 2 34 -1 54 -8 41 -14 89 -8 89 11 0 18 -41
42 -83 50 -40 8 -40 21 0 36 20 7 33 5 60 -12 23 -15 38 -18 45 -11 25 25 -49
96 -113 106 -61 10 -31 24 33 16 50 -7 61 -14 95 -66 11 -16 12 -10 6 35 -6
52 -5 53 16 42 20 -11 21 -9 21 26 0 21 -7 49 -16 62 -14 19 -14 25 -3 32 8 5
20 9 27 9 16 0 15 45 -3 107 -17 56 -46 89 -71 79 -13 -5 -11 -11 15 -41 32
-37 39 -55 20 -55 -6 0 -23 -9 -39 -20 -15 -11 -30 -17 -33 -14 -8 9 3 37 21
51 14 11 13 15 -2 32 -10 11 -24 17 -32 14 -19 -7 -18 6 2 28 15 17 15 20 0
43 -15 24 -14 26 10 56 20 23 25 37 20 58 -4 15 -11 46 -15 70 -10 53 -18 62
-24 25z m-87 -307 c0 -26 -6 -48 -15 -56 -12 -10 -15 -9 -16 6 -1 11 -2 36 -3
57 -2 30 1 37 16 37 15 0 18 -8 18 -44z m124 -209 c15 -11 11 -13 -29 -11 -26
1 -52 7 -58 13 -16 16 64 14 87 -2z"/>
<path d="M4464 2215 c-3 -14 -14 -31 -24 -38 -23 -16 -36 -62 -21 -72 6 -3 14
2 18 12 4 10 17 33 30 52 24 35 30 71 13 71 -5 0 -12 -11 -16 -25z"/>
<path d="M4940 2149 c-13 -38 -36 -75 -56 -94 -39 -37 -42 -57 -14 -103 24
-38 45 -49 65 -32 8 6 23 9 35 5 26 -8 47 8 66 53 16 39 19 103 5 118 -5 5
-16 32 -24 59 -10 36 -19 51 -34 53 -16 2 -24 -9 -43 -59z"/>
<path d="M5074 2177 c-6 -18 12 -57 27 -57 15 0 7 63 -8 68 -7 2 -16 -3 -19
-11z"/>
<path d="M2696 2158 c-10 -40 -6 -76 9 -82 39 -14 65 32 43 78 -14 32 -44 34
-52 4z"/>
<path d="M2770 2150 c0 -32 23 -42 34 -14 11 29 6 44 -14 44 -16 0 -20 -7 -20
-30z"/>
<path d="M4268 2143 c-27 -68 -48 -140 -48 -167 0 -38 29 -93 57 -105 23 -10
25 -8 51 46 45 97 31 253 -24 261 -16 2 -24 -6 -36 -35z"/>
<path d="M3702 2154 c-11 -7 -25 -27 -32 -44 -7 -16 -19 -30 -27 -30 -32 0
-73 -34 -73 -61 0 -38 48 -119 79 -132 14 -6 36 -19 48 -30 26 -23 47 -17 94
28 37 34 37 34 35 114 -2 76 -3 82 -34 112 -18 17 -32 35 -32 39 0 15 -39 18
-58 4z"/>
<path d="M4126 2103 c-9 -19 -11 -36 -5 -51 12 -32 41 -24 51 13 16 61 -19 90
-46 38z"/>
<path d="M4637 2094 c-52 -41 -61 -58 -52 -108 6 -28 13 -36 36 -41 16 -4 29
-11 29 -16 0 -12 -37 -12 -45 1 -9 15 -23 12 -45 -10 -23 -23 -26 -58 -6 -85
12 -17 17 -17 45 -5 17 7 35 18 39 24 4 6 29 28 55 50 57 46 73 78 59 121 -6
17 -13 47 -17 68 -8 49 -36 49 -98 1z"/>
<path d="M5266 2097 c-22 -28 -27 -46 -29 -105 -3 -94 10 -107 58 -59 19 19
38 49 41 66 4 17 13 36 20 42 8 6 14 24 14 40 0 25 -4 29 -28 29 -15 0 -33 5
-39 11 -8 8 -18 1 -37 -24z m44 -56 c0 -5 -12 -16 -26 -26 -26 -17 -26 -10 -1
23 11 14 27 16 27 3z"/>
<path d="M2532 2098 c-27 -27 -8 -58 34 -58 11 0 13 6 9 23 -11 35 -28 50 -43
35z"/>
<path d="M3053 2093 c-18 -2 -33 -7 -33 -11 -1 -4 -3 -24 -6 -44 -4 -30 -2
-39 15 -48 12 -6 21 -8 21 -4 0 3 7 1 15 -6 9 -7 14 -19 11 -27 -3 -7 -2 -13
3 -13 19 0 30 29 33 90 3 70 3 71 -59 63z"/>
<path d="M4437 2082 c-10 -10 -17 -33 -17 -51 0 -21 -4 -30 -11 -25 -16 10
-29 -16 -29 -59 0 -31 3 -38 17 -35 10 2 21 18 26 38 9 37 32 68 42 58 4 -3
-3 -24 -15 -47 -27 -53 -9 -53 30 1 33 45 38 68 15 68 -8 0 -17 14 -21 35 -7
40 -14 43 -37 17z"/>
<path d="M5105 2060 c-8 -37 9 -62 39 -58 31 4 34 51 4 72 -31 22 -35 20 -43
-14z"/>
<path d="M1975 2043 c-27 -14 -61 -35 -75 -48 -14 -12 -33 -25 -43 -28 -10 -4
-40 -21 -68 -39 -54 -35 -57 -53 -23 -105 20 -32 88 -32 135 0 19 12 51 31 71
40 67 31 89 88 43 109 -31 14 -29 24 10 46 87 49 41 72 -50 25z"/>
<path d="M2913 2054 c-3 -9 2 -50 12 -91 15 -61 17 -84 8 -126 -7 -35 -7 -61
0 -81 9 -26 7 -32 -16 -50 -14 -12 -33 -40 -43 -63 -19 -44 -37 -58 -57 -46
-20 12 -51 3 -79 -25 -16 -14 -28 -21 -28 -14 0 6 9 16 20 22 23 12 26 38 6
46 -21 8 -65 -24 -72 -52 -5 -18 0 -29 17 -43 27 -22 33 -22 231 16 117 23
139 24 153 13 32 -26 35 -54 12 -115 -18 -50 -29 -64 -95 -113 -53 -40 -72
-60 -69 -73 4 -14 -4 -21 -32 -30 -20 -7 -52 -20 -71 -31 -19 -10 -52 -23 -72
-29 -47 -12 -53 -43 -10 -54 15 -3 35 -14 45 -23 21 -19 82 -21 115 -3 29 15
55 67 56 111 1 34 3 35 46 41 25 4 76 13 113 20 l68 12 -6 71 -5 71 38 13 c20
7 48 16 61 19 14 3 40 21 58 40 l34 33 -21 30 c-17 23 -29 30 -65 32 l-45 3
25 37 c14 20 25 44 25 52 0 13 28 36 44 36 3 0 6 -13 6 -30 0 -29 7 -34 48
-33 6 1 12 -7 12 -17 0 -25 47 -60 79 -60 29 0 69 36 112 102 21 33 26 36 36
22 6 -9 16 -13 22 -10 5 4 15 -2 20 -13 6 -10 25 -33 42 -50 17 -17 29 -37 27
-44 -7 -18 -43 -20 -58 -2 -7 8 -25 15 -41 15 -22 0 -31 -7 -45 -36 -14 -29
-15 -40 -6 -55 7 -10 12 -24 12 -30 0 -23 81 -119 104 -125 15 -3 34 1 51 12
23 15 26 22 20 48 -11 51 -11 127 0 134 5 3 16 7 25 8 36 6 93 23 101 31 12
12 -14 208 -30 227 -9 11 -31 16 -70 16 -49 0 -61 -4 -79 -25 -12 -14 -22 -31
-22 -38 0 -8 -3 -7 -9 2 -8 12 -12 10 -22 -12 -13 -28 -33 -35 -45 -16 -3 6 0
15 7 20 11 7 10 9 -3 9 -10 0 -18 5 -18 10 0 6 -21 10 -47 10 -27 0 -68 9 -92
20 -61 28 -70 26 -77 -18 -3 -21 -14 -43 -24 -49 -14 -10 -20 -7 -31 14 -15
28 -57 53 -89 53 -15 0 -20 6 -20 28 0 36 -10 46 -25 26 -10 -14 -15 -15 -35
-3 -18 11 -24 11 -27 2 -10 -26 -34 -11 -53 31 -18 44 -47 69 -72 64 -8 -2
-12 4 -10 15 2 9 -2 17 -9 17 -6 0 -9 7 -5 15 3 8 1 15 -4 15 -5 0 -10 12 -12
27 -3 32 -35 44 -45 17z m97 -133 c0 -17 -18 -21 -24 -6 -3 9 0 15 9 15 8 0
15 -4 15 -9z"/>
<path d="M6442 2043 c5 -25 28 -28 28 -4 0 12 -6 21 -16 21 -9 0 -14 -7 -12
-17z"/>
<path d="M6000 2042 c0 -33 98 -83 134 -69 17 7 22 52 8 61 -18 11 -142 19
-142 8z"/>
<path d="M2505 2000 c-3 -5 -17 -10 -30 -10 -13 0 -26 -4 -29 -9 -11 -17 13
-61 32 -61 11 0 36 -11 56 -25 64 -44 77 -29 39 47 -32 64 -53 82 -68 58z"/>
<path d="M2633 1993 c-7 -18 47 -123 64 -123 6 0 15 5 18 10 11 17 35 11 61
-15 14 -14 31 -25 39 -25 23 0 18 41 -5 47 -11 3 -20 9 -20 13 0 4 -11 12 -25
18 -14 7 -30 23 -36 36 -6 13 -28 31 -51 39 -35 14 -40 14 -45 0z"/>
<path d="M3404 1996 c-3 -7 -4 -17 -3 -22 2 -16 -13 -54 -22 -54 -5 0 -9 13
-9 29 0 41 -22 56 -49 34 -29 -24 -38 -85 -18 -117 15 -23 21 -24 84 -20 39 2
73 10 81 18 19 19 27 98 13 125 -13 24 -68 30 -77 7z"/>
<path d="M2832 1987 c-22 -26 -25 -67 -7 -87 37 -41 59 -21 50 44 -7 46 -26
64 -43 43z"/>
<path d="M4022 1951 c-38 -31 -54 -51 -67 -90 -15 -46 -15 -52 1 -83 9 -18 22
-36 28 -40 16 -11 56 -10 56 1 0 6 17 11 37 13 30 2 38 8 43 28 4 16 14 26 28
28 27 4 28 24 6 98 -12 41 -22 58 -44 69 -16 8 -31 15 -34 15 -2 0 -27 -18
-54 -39z"/>
<path d="M5120 1928 c-11 -12 -20 -32 -20 -45 0 -14 -6 -23 -15 -23 -13 0 -35
-36 -35 -56 0 -8 32 -4 53 8 12 6 31 12 41 13 39 3 50 47 30 113 -5 19 -31 14
-54 -10z m20 -79 c0 -5 -7 -9 -15 -9 -15 0 -20 12 -9 23 8 8 24 -1 24 -14z"/>
<path d="M5826 1911 c-16 -18 -16 -19 14 -29 49 -18 79 5 48 36 -17 17 -42 15
-62 -7z"/>
<path d="M4774 1897 c-32 -27 -28 -59 5 -50 33 8 24 -14 -9 -26 -28 -9 -32 -8
-40 14 -12 31 -21 31 -59 -1 -46 -38 -40 -52 22 -56 l52 -3 -74 -21 c-90 -25
-104 -44 -33 -44 35 0 52 4 56 15 3 8 16 15 29 15 14 0 30 -7 37 -15 7 -8 19
-15 27 -15 18 0 33 40 22 61 -6 12 -2 20 16 29 32 17 43 50 21 65 -9 7 -16 22
-16 34 0 28 -22 27 -56 -2z"/>
<path d="M6076 1891 c-11 -12 -15 -28 -11 -45 3 -14 7 -37 10 -51 7 -32 33
-32 41 -1 3 14 12 27 20 30 18 7 18 36 -2 64 -19 27 -36 28 -58 3z"/>
<path d="M4970 1884 c-35 -24 -50 -44 -50 -70 0 -41 32 -39 72 5 59 63 43 108
-22 65z"/>
<path d="M2105 1878 c-23 -13 -65 -56 -65 -66 1 -31 30 -97 46 -103 32 -13 81
-10 94 6 7 8 18 15 26 15 7 0 19 8 26 18 7 10 21 21 31 25 11 4 17 17 17 35 0
30 -30 52 -71 52 -11 0 -22 7 -25 15 -7 18 -50 19 -79 3z"/>
<path d="M2352 1878 c-33 -33 3 -69 66 -67 60 2 76 13 60 43 -6 11 -16 24 -22
28 -18 12 -91 9 -104 -4z"/>
<path d="M5950 1862 c0 -13 23 -32 37 -32 11 0 11 5 3 20 -10 19 -40 28 -40
12z"/>
<path d="M1605 1828 c-22 -11 -41 -24 -43 -29 -2 -4 -25 -22 -52 -39 -69 -44
-75 -84 -12 -80 50 4 51 0 11 -41 -38 -39 -41 -40 -54 -23 -8 11 -15 31 -15
45 0 22 -4 26 -25 22 -13 -3 -30 -11 -36 -19 -6 -8 -17 -14 -25 -14 -22 0 -84
-60 -84 -81 0 -18 5 -19 53 -13 28 4 69 12 90 19 l37 13 0 -33 c0 -43 19 -57
72 -54 24 2 50 -1 57 -5 19 -12 100 14 111 35 6 10 11 36 12 58 2 53 -40 92
-89 84 -21 -4 -33 -1 -33 6 0 6 4 11 8 11 5 0 22 11 38 25 16 14 32 25 37 25
4 0 7 7 7 16 0 8 4 13 9 9 16 -9 22 13 15 50 -8 42 -28 45 -89 13z"/>
<path d="M4378 1838 c-21 -16 -36 -88 -18 -88 6 0 14 9 17 20 3 11 13 20 23
20 23 0 44 26 36 45 -7 18 -36 20 -58 3z"/>
<path d="M2563 1823 c-34 -23 -28 -47 23 -98 52 -50 64 -54 82 -25 10 16 16
18 32 10 38 -20 53 -13 48 24 -3 27 0 36 14 39 27 7 24 53 -4 60 -25 7 -38 1
-38 -17 0 -16 -43 -46 -65 -46 -8 0 -15 7 -15 15 0 16 -35 55 -47 54 -5 0 -18
-7 -30 -16z"/>
<path d="M5750 1810 c0 -11 7 -20 15 -20 8 0 15 9 15 20 0 11 -7 20 -15 20 -8
0 -15 -9 -15 -20z"/>
<path d="M5886 1811 c-9 -14 22 -41 40 -34 8 3 14 13 12 22 -4 18 -43 27 -52
12z"/>
<path d="M1730 1770 c-27 -27 -23 -64 7 -68 28 -4 61 42 47 66 -16 25 -31 25
-54 2z"/>
<path d="M1869 1766 c-15 -13 -29 -32 -33 -42 -3 -11 -19 -27 -35 -37 -35 -20
-46 -48 -32 -76 9 -16 24 -20 93 -23 72 -3 86 -1 106 17 21 18 23 27 20 78 -5
63 -24 91 -68 101 -18 4 -33 -1 -51 -18z"/>
<path d="M3608 1773 c7 -3 16 -2 19 1 4 3 -2 6 -13 5 -11 0 -14 -3 -6 -6z"/>
<path d="M4183 1744 c-24 -14 -43 -32 -43 -40 0 -8 -6 -15 -12 -15 -7 -1 -25
-3 -40 -4 -15 -2 -32 3 -39 11 -18 22 -57 17 -74 -10 -13 -20 -14 -32 -6 -63
6 -21 18 -48 26 -61 11 -15 14 -32 10 -52 -10 -44 27 -100 67 -100 11 0 36 16
55 35 33 33 35 38 29 83 -3 26 -2 53 3 60 14 23 46 10 49 -20 2 -15 10 -32 19
-39 12 -11 17 -10 26 6 30 52 44 93 36 106 -4 8 -6 30 -3 49 10 68 -38 93
-103 54z"/>
<path d="M4450 1761 c-8 -5 -27 -14 -42 -22 -16 -7 -28 -18 -28 -26 0 -10 19
-12 85 -9 47 2 89 6 92 10 4 3 1 6 -5 6 -6 0 -12 10 -14 23 -2 17 -10 22 -38
24 -19 1 -42 -1 -50 -6z"/>
<path d="M4850 1720 c-23 -7 -22 -8 10 -9 19 0 42 4 50 9 12 8 10 10 -10 9
-14 -1 -36 -5 -50 -9z"/>
<path d="M6090 1719 c0 -5 5 -7 10 -4 6 3 10 8 10 11 0 2 -4 4 -10 4 -5 0 -10
-5 -10 -11z"/>
<path d="M2364 1706 c-12 -31 1 -71 22 -74 17 -2 24 5 33 29 6 18 11 38 11 45
0 19 -59 18 -66 0z"/>
<path d="M4330 1674 c0 -8 5 -12 10 -9 6 4 8 11 5 16 -9 14 -15 11 -15 -7z"/>
<path d="M2051 1584 c-16 -21 -18 -30 -10 -46 7 -13 16 -17 27 -12 9 4 36 9
60 12 23 2 42 7 42 11 0 11 -68 61 -84 61 -8 0 -24 -12 -35 -26z"/>
<path d="M2439 1559 c-15 -28 5 -99 27 -99 17 0 74 53 74 68 0 12 -61 52 -78
52 -6 0 -16 -10 -23 -21z"/>
<path d="M1334 1522 c-29 -30 -31 -63 -4 -87 36 -32 100 2 100 53 0 36 -10 48
-44 54 -22 5 -34 0 -52 -20z"/>
<path d="M3447 1520 c-8 -21 -20 -31 -42 -36 -16 -4 -41 -14 -55 -24 -14 -10
-35 -21 -47 -24 -13 -4 -23 -12 -23 -17 0 -5 -11 -14 -25 -19 -19 -7 -25 -17
-25 -39 0 -24 9 -35 51 -62 28 -17 57 -43 66 -56 19 -29 32 -29 93 2 50 25 50
26 44 65 -6 34 -3 43 17 59 l24 19 -22 31 c-30 39 -29 47 7 60 34 11 38 30 12
54 -30 27 -62 21 -75 -13z"/>
<path d="M1168 1503 c-25 -21 -62 -51 -83 -66 -40 -32 -44 -64 -7 -59 25 4 27
-5 8 -30 -16 -22 -26 -23 -26 -3 0 10 -10 15 -33 15 -25 0 -42 -9 -69 -37 -33
-35 -88 -126 -88 -147 0 -5 16 -6 35 -3 34 6 35 4 33 -21 -3 -23 1 -27 25 -30
23 -3 26 -7 21 -28 -8 -31 17 -33 53 -4 14 11 35 20 47 20 30 0 43 11 56 44 8
21 7 32 -1 42 -15 18 -12 20 35 36 41 14 51 26 60 68 3 17 16 29 36 37 43 16
48 39 16 72 -30 31 -32 43 -11 61 13 11 13 15 -1 41 -20 40 -49 37 -106 -8z
m-94 -208 c-4 -8 -11 -15 -16 -15 -7 0 -8 -15 -5 -37 9 -58 -10 -77 -65 -65
-23 6 -36 10 -27 11 19 1 33 27 30 55 -2 11 10 29 26 42 32 27 65 32 57 9z"/>
<path d="M1792 1498 c-18 -18 -15 -48 6 -54 9 -3 25 -10 35 -15 42 -23 64 38
25 65 -27 19 -50 20 -66 4z"/>
<path d="M2052 1490 c-9 -15 -19 -19 -37 -14 -31 8 -55 -11 -55 -42 0 -23 6
-31 45 -59 20 -15 20 -15 -7 -39 -29 -26 -36 -46 -18 -46 6 0 13 7 17 16 4 12
14 14 44 9 37 -6 39 -5 39 18 0 14 -7 27 -15 31 -23 8 -18 32 12 60 23 22 26
29 18 52 -13 35 -27 39 -43 14z"/>
<path d="M3843 1482 c-12 -8 -16 -24 -14 -59 1 -15 14 -28 44 -42 56 -27 71
-26 91 5 23 35 17 59 -16 60 -14 1 -38 11 -53 22 -30 24 -35 25 -52 14z"/>
<path d="M2280 1460 c-11 -21 -5 -60 9 -60 17 0 53 50 48 64 -9 23 -44 20 -57
-4z"/>
<path d="M2560 1470 c-8 -5 -12 -12 -9 -15 8 -8 39 5 39 16 0 11 -11 11 -30
-1z"/>
<path d="M2197 1452 c-22 -24 -23 -92 -2 -92 8 0 15 8 15 19 0 10 9 30 20 44
11 14 20 30 20 36 0 18 -35 13 -53 -7z"/>
<path d="M1506 1421 c-57 -38 -79 -101 -35 -101 10 0 29 -5 43 -12 37 -16 64
-1 86 50 19 42 19 43 0 62 -25 25 -57 25 -94 1z"/>
<path d="M4196 1409 c-17 -34 -14 -49 10 -49 17 0 36 43 28 65 -9 23 -21 18
-38 -16z"/>
<path d="M1734 1405 c-8 -34 10 -55 30 -35 25 25 24 55 -1 58 -17 3 -24 -3
-29 -23z"/>
<path d="M6320 1416 c0 -8 5 -18 11 -22 6 -3 19 -25 28 -47 l17 -40 14 32 c12
29 11 37 -3 60 -18 29 -67 42 -67 17z"/>
<path d="M5704 1406 c-3 -7 -4 -33 -2 -57 2 -31 7 -44 18 -44 11 0 16 14 18
58 2 47 0 57 -13 57 -9 0 -18 -6 -21 -14z"/>
<path d="M5874 1362 c-27 -18 -22 -72 7 -72 14 0 30 40 24 60 -7 21 -14 24
-31 12z"/>
<path d="M4035 1330 c-10 -11 -26 -22 -36 -25 -24 -8 -25 -47 -3 -80 20 -30
50 -33 57 -5 3 14 14 20 31 20 18 0 30 8 38 24 11 27 4 61 -11 51 -5 -3 -12
-1 -16 5 -15 25 -42 29 -60 10z"/>
<path d="M1310 1315 c-23 -25 -23 -26 -7 -60 19 -40 36 -50 72 -41 32 8 40 42
20 89 -19 45 -50 49 -85 12z"/>
<path d="M1844 1320 c-23 -9 -36 -25 -41 -50 -1 -8 -5 -30 -9 -47 -7 -38 3
-42 41 -17 22 15 26 42 4 29 -5 -4 -9 3 -9 14 0 24 28 29 36 6 5 -11 11 -12
25 -4 24 12 24 41 1 62 -21 19 -19 19 -48 7z"/>
<path d="M3804 1295 c-12 -18 -24 -25 -43 -23 -23 3 -26 -1 -29 -35 -4 -48 28
-97 64 -97 17 0 27 -8 34 -24 12 -33 25 -39 70 -31 50 8 61 35 31 76 -12 15
-21 36 -21 45 0 32 -58 114 -82 114 -4 0 -15 -11 -24 -25z m64 -130 c-3 -3 -9
2 -12 12 -6 14 -5 15 5 6 7 -7 10 -15 7 -18z"/>
<path d="M3556 1291 c-10 -10 -19 -41 -22 -67 -2 -27 -5 -56 -6 -64 -5 -49 3
-68 32 -80 17 -7 35 -21 41 -31 12 -24 26 -24 82 0 32 14 46 26 49 45 6 30 -8
46 -39 46 -25 0 -25 1 -27 71 -2 60 -27 99 -65 99 -15 0 -36 -9 -45 -19z"/>
<path d="M3161 1234 c-24 -20 -38 -24 -57 -20 -61 16 -102 -57 -58 -101 22
-22 26 -23 52 -9 16 8 40 27 53 41 13 14 34 30 47 35 25 11 30 51 8 69 -11 9
-21 6 -45 -15z"/>
<path d="M1656 1214 c-5 -18 -2 -32 7 -41 20 -20 56 20 41 45 -18 28 -41 26
-48 -4z"/>
<path d="M4060 1185 c0 -8 5 -15 10 -15 6 0 10 7 10 15 0 8 -4 15 -10 15 -5 0
-10 -7 -10 -15z"/>
<path d="M3277 1114 c-77 -86 -84 -114 -39 -157 32 -31 67 -35 94 -10 17 15
18 15 18 -3 0 -11 -5 -25 -12 -32 -9 -9 -9 -16 4 -28 13 -14 22 -14 52 -4 45
14 48 20 50 83 1 31 9 63 20 79 14 22 15 31 6 50 -21 40 -83 98 -105 98 -14 0
-45 -26 -88 -76z"/>
<path d="M5766 1164 c-27 -7 -53 -17 -58 -22 -5 -5 -2 -28 7 -51 8 -24 15 -58
15 -75 0 -46 13 -60 46 -52 16 4 36 8 44 9 29 5 40 18 40 46 0 15 9 36 20 46
41 37 11 117 -42 114 -13 -1 -45 -8 -72 -15z m79 -92 c0 -18 -20 -15 -23 4 -3
10 1 15 10 12 7 -3 13 -10 13 -16z"/>
<path d="M761 1103 c-77 -79 -166 -145 -248 -182 -28 -13 -47 -47 -38 -69 6
-15 8 -14 16 6 4 12 15 22 23 22 27 0 71 30 77 52 3 14 12 22 23 21 10 0 33
14 53 33 19 19 39 32 44 28 5 -3 23 2 41 10 17 9 37 16 45 16 7 0 13 5 13 12
0 7 11 21 24 33 32 26 39 78 12 83 -13 3 -40 -18 -85 -65z"/>
<path d="M1282 1148 c-7 -7 -12 -17 -12 -23 0 -17 34 -45 53 -45 25 0 23 56
-2 70 -24 13 -24 13 -39 -2z"/>
<path d="M4594 1127 c-2 -7 2 -30 11 -50 19 -46 19 -90 0 -127 -18 -34 -10
-39 68 -42 59 -2 67 8 67 82 0 44 -6 64 -27 95 -14 22 -31 43 -37 47 -18 13
-76 9 -82 -5z"/>
<path d="M5453 1123 c-47 -4 -53 -7 -53 -26 0 -13 7 -33 16 -46 13 -18 15 -37
11 -88 l-6 -66 47 7 c26 3 69 8 95 10 81 7 107 53 71 128 -19 41 -80 89 -108
86 -12 -1 -45 -3 -73 -5z"/>
<path d="M2606 1105 c-74 -26 -87 -65 -35 -109 33 -28 77 -33 141 -16 61 17
65 84 6 109 -62 27 -75 28 -112 16z"/>
<path d="M4829 1108 c0 -2 -1 -49 -2 -106 l-2 -102 32 -6 c60 -11 68 -5 69 61
2 75 -11 121 -39 140 -18 13 -56 21 -58 13z"/>
<path d="M5017 1099 c-12 -7 -15 -15 -8 -27 4 -9 11 -38 14 -63 9 -64 26 -98
54 -105 51 -13 70 40 45 131 -9 33 -21 63 -27 67 -15 11 -57 9 -78 -3z"/>
<path d="M5233 1095 c-3 -9 3 -25 13 -37 15 -15 19 -36 19 -87 0 -61 2 -66 23
-69 42 -6 51 12 50 103 -1 78 -2 84 -25 94 -34 16 -73 14 -80 -4z"/>
<path d="M1122 1080 c-15 -24 -8 -40 18 -40 24 0 33 26 14 45 -19 19 -17 19
-32 -5z"/>
<path d="M2363 1070 c-33 -13 -29 -40 5 -40 36 0 82 21 82 38 0 14 -53 15 -87
2z"/>
<path d="M2948 1060 c-9 -6 -26 -26 -38 -45 -18 -30 -20 -41 -12 -63 6 -15 12
-38 14 -52 4 -36 33 -36 65 -1 25 27 30 28 52 17 13 -7 29 -22 35 -33 9 -17
16 -18 44 -11 44 12 41 46 -5 68 -27 13 -33 22 -39 60 -4 25 -11 51 -16 58
-12 14 -76 16 -100 2z"/>
<path d="M3975 1030 c-10 -11 -14 -20 -8 -20 5 0 18 9 28 20 10 11 14 20 8 20
-5 0 -18 -9 -28 -20z"/>
<path d="M1494 1029 c-3 -6 -2 -15 4 -21 11 -11 52 6 52 22 0 14 -47 13 -56
-1z"/>
<path d="M782 1005 c-37 -47 -4 -88 39 -49 22 20 25 44 7 62 -17 17 -24 15
-46 -13z"/>
<path d="M2205 1016 c-22 -16 -14 -46 14 -46 26 0 66 34 57 48 -10 16 -48 15
-71 -2z"/>
<path d="M1300 990 c0 -11 6 -20 13 -20 19 0 27 10 20 26 -8 21 -33 17 -33 -6z"/>
<path d="M2382 994 c-12 -8 -27 -25 -33 -36 -9 -18 -8 -24 7 -35 43 -31 124
-4 124 42 0 42 -56 59 -98 29z"/>
<path d="M3763 1000 c-23 -9 -40 -51 -28 -69 3 -6 20 -11 36 -11 35 0 56 38
39 71 -12 21 -15 22 -47 9z"/>
<path d="M4420 996 c0 -8 7 -16 15 -20 17 -6 18 -4 9 18 -8 20 -24 21 -24 2z"/>
<path d="M2010 985 c-20 -24 3 -39 53 -36 10 0 20 8 24 17 12 32 -54 47 -77
19z"/>
<path d="M855 934 c-28 -30 -29 -37 -15 -65 14 -26 47 -9 65 34 24 58 -7 77
-50 31z"/>
<path d="M1196 953 c-3 -3 -6 -15 -6 -25 0 -13 7 -18 25 -18 15 0 25 6 25 15
0 16 -34 38 -44 28z"/>
<path d="M3510 924 c-14 -42 -5 -54 36 -46 27 5 30 19 12 57 -16 35 -34 31
-48 -11z"/>
<path d="M2687 903 c-19 -3 -35 -15 -45 -34 -10 -16 -24 -29 -33 -29 -9 0 -23
-8 -32 -17 -46 -52 -17 -123 52 -123 39 0 81 28 81 55 0 7 7 21 16 30 10 9 21
35 25 58 6 34 4 45 -9 55 -8 6 -18 11 -21 11 -3 -1 -19 -4 -34 -6z"/>
<path d="M3675 890 c-3 -5 1 -10 10 -10 9 0 13 5 10 10 -3 6 -8 10 -10 10 -2
0 -7 -4 -10 -10z"/>
<path d="M1265 880 c4 -6 11 -8 16 -5 14 9 11 15 -7 15 -8 0 -12 -5 -9 -10z"/>
<path d="M1718 856 c-84 -30 -116 -70 -125 -160 -6 -63 10 -126 42 -164 13
-16 62 -55 109 -88 89 -61 96 -72 96 -141 0 -31 -5 -45 -19 -52 -32 -18 -50 7
-53 74 l-3 60 -82 3 -83 3 0 -59 c0 -110 34 -165 121 -196 114 -41 260 5 285
89 16 52 17 124 3 183 -14 57 -57 104 -151 168 -37 25 -72 54 -78 64 -15 28
-12 76 5 90 26 22 44 4 47 -47 l3 -48 80 0 80 0 3 66 c3 59 0 70 -23 97 -50
60 -174 87 -257 58z"/>
<path d="M5950 864 c-38 -15 -93 -46 -109 -62 -38 -38 -44 -73 -49 -272 -5
-228 4 -294 49 -345 57 -65 175 -83 265 -41 102 48 117 98 112 384 -3 189 -4
199 -28 242 -18 33 -38 51 -73 68 -46 23 -138 37 -167 26z m75 -146 c3 -13 4
-122 3 -243 -3 -212 -4 -220 -23 -220 -19 0 -20 8 -23 220 -3 234 0 265 23
265 8 0 17 -10 20 -22z"/>
<path d="M377 826 c-20 -14 -46 -26 -58 -28 -28 -4 -48 -33 -33 -48 8 -8 20
-4 42 14 16 14 38 26 47 26 18 0 18 -10 0 -67 -12 -37 19 -28 54 14 32 39 42
76 17 67 -10 -4 -12 2 -9 20 7 34 -12 34 -60 2z"/>
<path d="M515 820 c-4 -17 -11 -68 -15 -113 -11 -105 -36 -287 -55 -400 -8
-48 -15 -105 -15 -127 l0 -40 89 0 89 0 6 31 c3 17 6 44 6 60 0 27 3 29 40 29
l39 0 7 -60 7 -60 88 0 88 0 -6 53 c-3 28 -12 90 -20 137 -8 47 -19 117 -24
155 -5 39 -13 93 -18 120 -5 28 -12 75 -16 105 -3 30 -11 74 -17 98 l-10 42
-128 0 -128 0 -7 -30z m160 -257 c14 -172 14 -168 -19 -171 l-29 -4 7 84 c11
134 18 188 26 188 4 0 11 -44 15 -97z"/>
<path d="M950 495 l0 -355 150 0 150 0 0 70 0 70 -55 0 -55 0 -2 283 -3 282
-92 3 -93 3 0 -356z"/>
<path d="M1320 495 l0 -355 90 0 90 0 0 355 0 355 -90 0 -90 0 0 -355z"/>
<path d="M2157 843 c-6 -10 -22 -117 -42 -278 -9 -72 -23 -173 -30 -225 -8
-52 -17 -119 -20 -148 l-6 -53 93 3 93 3 3 35 c5 72 10 80 47 80 l34 0 7 -60
7 -60 89 0 90 0 -7 63 c-4 34 -15 112 -25 172 -10 61 -26 162 -35 225 -10 63
-23 144 -29 180 l-12 65 -126 3 c-70 1 -129 -1 -131 -5z m156 -393 c2 -46 -1
-55 -17 -58 -32 -7 -36 10 -26 118 15 163 23 181 33 80 4 -47 9 -110 10 -140z"/>
<path d="M2777 843 c-4 -3 -7 -163 -7 -355 l0 -348 80 0 80 0 1 128 c1 160 7
283 14 290 3 3 5 -15 5 -40 0 -25 7 -85 16 -134 8 -49 18 -123 22 -164 l7 -75
63 -3 62 -3 0 36 c0 19 6 77 14 128 8 50 17 127 21 169 13 150 25 91 25 -121
l0 -211 80 0 80 0 0 355 0 355 -120 0 c-66 0 -120 -4 -120 -9 0 -34 -33 -258
-39 -264 -9 -9 -41 144 -41 192 0 16 -4 41 -10 55 -9 26 -11 26 -118 26 -60 0
-112 -3 -115 -7z"/>
<path d="M3440 495 l0 -355 163 2 162 3 0 65 0 65 -67 3 -68 3 0 74 0 74 53 3
52 3 3 67 3 67 -53 3 -53 3 -3 63 -3 62 54 0 c32 0 59 5 65 13 6 7 8 37 5 75
l-6 62 -153 0 -154 0 0 -355z"/>
<path d="M3842 553 c3 -254 5 -302 20 -328 79 -145 332 -138 388 10 15 38 25
390 15 518 l-7 97 -89 0 -89 0 -2 -297 c-3 -290 -4 -298 -23 -298 -19 0 -20 8
-23 298 l-2 297 -96 0 -96 0 4 -297z"/>
<path d="M4559 526 c-1 -179 -2 -338 -3 -353 l-1 -28 90 0 90 0 3 136 3 136
64 5 c122 10 150 55 143 231 -6 170 -29 188 -245 195 l-143 5 -1 -327z m220
195 c16 -10 23 -140 8 -158 -5 -7 -18 -13 -28 -13 -17 0 -19 8 -19 83 0 96 6
109 39 88z"/>
<path d="M5037 843 c-4 -3 -7 -163 -7 -355 l0 -348 160 0 c181 0 175 -4 168
91 l-3 44 -65 5 -65 5 -3 73 -3 72 55 0 c63 0 70 9 64 91 l-3 44 -57 3 -58 3
0 64 0 65 60 0 60 0 0 75 0 75 -148 0 c-82 0 -152 -3 -155 -7z"/>
<path d="M5437 843 c-4 -3 -7 -163 -7 -355 l0 -348 150 0 150 0 0 70 0 70 -55
0 -55 0 0 269 c0 148 -3 276 -6 285 -5 13 -23 16 -88 16 -46 0 -86 -3 -89 -7z"/>
<path d="M2557 513 c-17 -16 -4 -36 33 -50 42 -17 49 -27 25 -37 -19 -7 -20
-26 0 -26 8 0 30 7 49 17 l35 16 -27 27 c-15 15 -33 35 -40 44 -13 16 -63 22
-75 9z"/>
</g>
</svg>
